<svg width="23" height="22" viewBox="0 0 23 22" fill="none" xmlns="http://www.w3.org/2000/svg">
<path fill-rule="evenodd" clip-rule="evenodd" d="M5.75 11C5.75 10.8177 5.82573 10.6428 5.96052 10.5139C6.09531 10.3849 6.27813 10.3125 6.46875 10.3125H14.7962L11.7099 7.36176C11.5749 7.23267 11.4991 7.05758 11.4991 6.87501C11.4991 6.69245 11.5749 6.51736 11.7099 6.38826C11.8448 6.25917 12.0279 6.18665 12.2188 6.18665C12.4096 6.18665 12.5927 6.25917 12.7276 6.38826L17.0401 10.5133C17.1071 10.5771 17.1602 10.653 17.1964 10.7365C17.2326 10.82 17.2513 10.9096 17.2513 11C17.2513 11.0904 17.2326 11.18 17.1964 11.2635C17.1602 11.347 17.1071 11.4229 17.0401 11.4868L12.7276 15.6118C12.5927 15.7409 12.4096 15.8134 12.2188 15.8134C12.0279 15.8134 11.8448 15.7409 11.7099 15.6118C11.5749 15.4827 11.4991 15.3076 11.4991 15.125C11.4991 14.9424 11.5749 14.7674 11.7099 14.6383L14.7962 11.6875H6.46875C6.27813 11.6875 6.09531 11.6151 5.96052 11.4862C5.82573 11.3572 5.75 11.1824 5.75 11Z" fill="#8D4337"/>
</svg>
