<svg width="26" height="30" viewBox="0 0 26 30" fill="none" xmlns="http://www.w3.org/2000/svg">
<path fill-rule="evenodd" clip-rule="evenodd" d="M6.75 11C6.75 10.8177 6.82573 10.6428 6.96052 10.5139C7.09531 10.3849 7.27813 10.3125 7.46875 10.3125H15.7962L12.7099 7.36176C12.5749 7.23267 12.4991 7.05758 12.4991 6.87501C12.4991 6.69245 12.5749 6.51736 12.7099 6.38826C12.8448 6.25917 13.0279 6.18665 13.2188 6.18665C13.4096 6.18665 13.5927 6.25917 13.7276 6.38826L18.0401 10.5133C18.1071 10.5771 18.1602 10.653 18.1964 10.7365C18.2326 10.82 18.2513 10.9096 18.2513 11C18.2513 11.0904 18.2326 11.18 18.1964 11.2635C18.1602 11.347 18.1071 11.4229 18.0401 11.4868L13.7276 15.6118C13.5927 15.7409 13.4096 15.8134 13.2188 15.8134C13.0279 15.8134 12.8448 15.7409 12.7099 15.6118C12.5749 15.4827 12.4991 15.3076 12.4991 15.125C12.4991 14.9424 12.5749 14.7674 12.7099 14.6383L15.7962 11.6875H7.46875C7.27813 11.6875 7.09531 11.6151 6.96052 11.4862C6.82573 11.3572 6.75 11.1824 6.75 11Z" fill="#8D4337"/>
<path d="M2.64 22.512C3.09867 22.512 3.49867 22.6133 3.84 22.816C4.18133 23.0133 4.44533 23.2987 4.632 23.672C4.81867 24.04 4.912 24.4747 4.912 24.976V25.536C4.912 26.0373 4.81867 26.4747 4.632 26.848C4.44533 27.216 4.18133 27.5013 3.84 27.704C3.49867 27.9013 3.09867 28 2.64 28H0.736V22.512H2.64ZM1.52 23.224V27.288H2.64C3.11467 27.288 3.48 27.1413 3.736 26.848C3.99733 26.5493 4.128 26.112 4.128 25.536V24.976C4.128 24.4107 4 23.9787 3.744 23.68C3.49333 23.376 3.12533 23.224 2.64 23.224H1.52ZM7.70244 23.832C8.03844 23.832 8.33444 23.904 8.59044 24.048C8.85177 24.1867 9.05444 24.3867 9.19844 24.648C9.34244 24.9093 9.41444 25.2133 9.41444 25.56V26.128H6.55844C6.5691 26.56 6.67044 26.8933 6.86244 27.128C7.05444 27.3627 7.33977 27.48 7.71844 27.48C8.05444 27.48 8.30244 27.3813 8.46244 27.184C8.62244 26.9867 8.70244 26.752 8.70244 26.48H9.41444C9.41444 26.8 9.33977 27.08 9.19044 27.32C9.04644 27.56 8.84377 27.7467 8.58244 27.88C8.32644 28.0133 8.0331 28.08 7.70244 28.08H7.67044C7.09444 28.08 6.63844 27.896 6.30244 27.528C5.97177 27.1547 5.80644 26.6587 5.80644 26.04V25.88C5.80644 25.4747 5.8811 25.1173 6.03044 24.808C6.17977 24.4987 6.3931 24.2587 6.67044 24.088C6.94777 23.9173 7.2731 23.832 7.64644 23.832H7.70244ZM7.66244 24.432C7.35844 24.432 7.11044 24.5253 6.91844 24.712C6.73177 24.8987 6.6171 25.176 6.57444 25.544H8.67044V25.448C8.67044 25.144 8.5771 24.8987 8.39044 24.712C8.2091 24.5253 7.96644 24.432 7.66244 24.432ZM11.3878 23.912H12.3398V24.512H11.3878V26.952C11.3878 27.144 11.4251 27.2827 11.4998 27.368C11.5744 27.4533 11.6891 27.496 11.8438 27.496C11.9824 27.496 12.1478 27.456 12.3398 27.376V27.936C12.1478 28.032 11.8998 28.08 11.5958 28.08C11.2811 28.08 11.0411 27.9867 10.8758 27.8C10.7158 27.6133 10.6358 27.3173 10.6358 26.912V24.512H10.1878V23.912H10.6598L10.9158 22.608H11.3878V23.912ZM14.8814 23.832C15.42 23.832 15.82 23.9387 16.0814 24.152C16.348 24.3653 16.4814 24.6747 16.4814 25.08V27.2C16.4814 27.296 16.5027 27.368 16.5454 27.416C16.588 27.4587 16.6414 27.48 16.7054 27.48C16.828 27.48 16.9507 27.4427 17.0734 27.368V27.92C16.892 28.0267 16.6867 28.08 16.4574 28.08C16.228 28.08 16.0574 28.016 15.9454 27.888C15.8334 27.7547 15.772 27.5733 15.7614 27.344C15.4307 27.8347 14.9534 28.08 14.3294 28.08C13.8814 28.08 13.5454 27.984 13.3214 27.792C13.1027 27.5947 12.9934 27.2853 12.9934 26.864C12.9934 26.5333 13.0787 26.2747 13.2494 26.088C13.42 25.896 13.7027 25.7573 14.0974 25.672C14.492 25.5867 15.036 25.544 15.7294 25.544V25.168C15.7294 24.896 15.6494 24.7067 15.4894 24.6C15.3294 24.488 15.0974 24.432 14.7934 24.432C14.5054 24.432 14.2814 24.488 14.1214 24.6C13.9614 24.712 13.8814 24.8693 13.8814 25.072V25.168H13.1454C13.1347 25.0933 13.1294 25.0053 13.1294 24.904C13.1294 24.7173 13.204 24.5413 13.3534 24.376C13.5027 24.2107 13.7054 24.08 13.9614 23.984C14.2174 23.8827 14.5 23.832 14.8094 23.832H14.8814ZM15.7294 26.128C15.1694 26.128 14.7454 26.1573 14.4574 26.216C14.1747 26.2693 13.9854 26.352 13.8894 26.464C13.7934 26.576 13.7454 26.7307 13.7454 26.928C13.7454 27.296 14.0254 27.48 14.5854 27.48C14.7827 27.48 14.9694 27.432 15.1454 27.336C15.3214 27.2347 15.4627 27.0933 15.5694 26.912C15.676 26.7307 15.7294 26.5227 15.7294 26.288V26.128ZM18.7211 22.24V22.936H17.9371V22.24H18.7211ZM18.7051 23.912V28H17.9531V23.912H18.7051ZM20.8152 22.24V28H20.0632V22.24H20.8152ZM23.7318 23.832C24.0358 23.832 24.3051 23.88 24.5398 23.976C24.7798 24.072 24.9638 24.2053 25.0918 24.376C25.2251 24.5467 25.2918 24.736 25.2918 24.944L25.2838 25.088H24.5398V25.016C24.5398 24.6267 24.2385 24.432 23.6358 24.432C23.0385 24.432 22.7398 24.6107 22.7398 24.968C22.7398 25.1333 22.8251 25.256 22.9958 25.336C23.1665 25.4107 23.4278 25.4827 23.7798 25.552C24.1158 25.6213 24.3905 25.6933 24.6038 25.768C24.8225 25.8427 25.0065 25.96 25.1558 26.12C25.3105 26.28 25.3878 26.496 25.3878 26.768C25.3878 27.2053 25.2385 27.5333 24.9398 27.752C24.6411 27.9707 24.2118 28.08 23.6518 28.08H23.5318C23.1958 28.08 22.9025 28.0293 22.6518 27.928C22.4011 27.8213 22.2065 27.68 22.0678 27.504C21.9345 27.3227 21.8705 27.12 21.8758 26.896V26.72H22.6198V26.8C22.6198 27.2533 23.0011 27.48 23.7638 27.48C23.9878 27.48 24.1878 27.4293 24.3638 27.328C24.5451 27.2267 24.6358 27.088 24.6358 26.912C24.6358 26.7627 24.5851 26.6453 24.4838 26.56C24.3878 26.4747 24.2678 26.4107 24.1238 26.368C23.9798 26.3253 23.7798 26.2827 23.5238 26.24C23.1931 26.176 22.9265 26.112 22.7238 26.048C22.5211 25.9787 22.3478 25.864 22.2038 25.704C22.0598 25.544 21.9878 25.3253 21.9878 25.048C21.9878 24.6693 22.1371 24.3733 22.4358 24.16C22.7345 23.9413 23.1425 23.832 23.6598 23.832H23.7318Z" fill="#8D4337"/>
</svg>
