<svg width="18" height="41" viewBox="0 0 18 41" fill="none" xmlns="http://www.w3.org/2000/svg">
<path d="M9.54922 19.5C11.8203 16.9922 17 10.9141 17 7.5C17 3.35938 13.1927 0 8.5 0C3.80729 0 0 3.35938 0 7.5C0 10.9141 5.17969 16.9922 7.45078 19.5C7.99531 20.0977 9.00469 20.0977 9.54922 19.5ZM8.5 5C9.25145 5 9.97212 5.26339 10.5035 5.73223C11.0348 6.20107 11.3333 6.83696 11.3333 7.5C11.3333 8.16304 11.0348 8.79893 10.5035 9.26777C9.97212 9.73661 9.25145 10 8.5 10C7.74855 10 7.02788 9.73661 6.49653 9.26777C5.96518 8.79893 5.66667 8.16304 5.66667 7.5C5.66667 6.83696 5.96518 6.20107 6.49653 5.73223C7.02788 5.26339 7.74855 5 8.5 5Z" fill="#4C4848"/>
<path d="M0.728 38.75V33.262H2.096L3.792 37.526H3.808L5.512 33.262H6.888V38.75H6.04V34.238H6L4.216 38.75H3.304L1.528 34.238H1.488V38.75H0.728ZM9.25813 38.83C9.03946 38.83 8.82879 38.7953 8.62613 38.726C8.42879 38.6567 8.26613 38.5393 8.13813 38.374C8.01546 38.2033 7.95413 37.974 7.95413 37.686C7.95413 37.3927 8.01813 37.158 8.14613 36.982C8.27946 36.8007 8.46613 36.662 8.70613 36.566C8.95146 36.47 9.24213 36.406 9.57812 36.374C9.91946 36.342 10.2928 36.326 10.6981 36.326V35.91C10.6981 35.622 10.6261 35.422 10.4821 35.31C10.3435 35.1927 10.1221 35.134 9.81813 35.134C9.56213 35.134 9.34079 35.19 9.15413 35.302C8.96746 35.4087 8.87413 35.5793 8.87413 35.814V35.91H8.09813C8.09279 35.8833 8.09013 35.8567 8.09013 35.83C8.09013 35.798 8.09013 35.766 8.09013 35.734C8.09013 35.4993 8.16213 35.2967 8.30613 35.126C8.45546 34.95 8.65546 34.8167 8.90613 34.726C9.16213 34.63 9.45279 34.582 9.77813 34.582H9.89013C10.4288 34.582 10.8288 34.6887 11.0901 34.902C11.3568 35.1153 11.4901 35.422 11.4901 35.822V37.99C11.4901 38.086 11.5115 38.1553 11.5541 38.198C11.5968 38.2407 11.6475 38.262 11.7061 38.262C11.7648 38.262 11.8261 38.2513 11.8901 38.23C11.9595 38.2087 12.0208 38.182 12.0741 38.15V38.662C12.0048 38.7153 11.9195 38.7553 11.8181 38.782C11.7168 38.814 11.5968 38.83 11.4581 38.83C11.2875 38.83 11.1488 38.798 11.0421 38.734C10.9408 38.6647 10.8661 38.574 10.8181 38.462C10.7701 38.35 10.7408 38.2247 10.7301 38.086C10.5755 38.326 10.3728 38.51 10.1221 38.638C9.87679 38.766 9.58879 38.83 9.25813 38.83ZM9.57812 38.262C9.76479 38.262 9.94346 38.222 10.1141 38.142C10.2848 38.0567 10.4235 37.9287 10.5301 37.758C10.6421 37.5873 10.6981 37.374 10.6981 37.118V36.814C10.2981 36.814 9.95413 36.8353 9.66613 36.878C9.37813 36.9153 9.15679 36.99 9.00213 37.102C8.85279 37.214 8.77813 37.3873 8.77813 37.622C8.77813 37.846 8.84479 38.0087 8.97813 38.11C9.11146 38.2113 9.31146 38.262 9.57812 38.262ZM12.9834 40.198V34.662H13.5834L13.6954 35.23C13.8287 35.0273 14.002 34.87 14.2154 34.758C14.4287 34.6407 14.6767 34.582 14.9594 34.582C15.2687 34.582 15.546 34.6513 15.7914 34.79C16.042 34.9233 16.242 35.142 16.3914 35.446C16.5407 35.75 16.6154 36.15 16.6154 36.646V36.798C16.6154 37.2353 16.5407 37.606 16.3914 37.91C16.2474 38.214 16.0527 38.4433 15.8074 38.598C15.5674 38.7527 15.3007 38.83 15.0074 38.83C14.7194 38.83 14.4714 38.774 14.2634 38.662C14.0607 38.55 13.9007 38.406 13.7834 38.23V40.198H12.9834ZM14.7914 38.254C14.978 38.254 15.146 38.206 15.2954 38.11C15.4447 38.014 15.562 37.87 15.6474 37.678C15.7327 37.486 15.7754 37.2487 15.7754 36.966V36.518C15.7754 36.1873 15.7327 35.9233 15.6474 35.726C15.562 35.5233 15.4447 35.3767 15.2954 35.286C15.146 35.1953 14.978 35.15 14.7914 35.15C14.61 35.15 14.442 35.1953 14.2874 35.286C14.1327 35.3713 14.0074 35.5127 13.9114 35.71C13.8207 35.9073 13.7754 36.174 13.7754 36.51V36.966C13.7754 37.254 13.8207 37.494 13.9114 37.686C14.002 37.878 14.1247 38.022 14.2794 38.118C14.434 38.2087 14.6047 38.254 14.7914 38.254Z" fill="#4C4848"/>
</svg>
